<?xml version="1.0" encoding="utf-8"?>
<!-- Svg Vector Icons : http://www.onlinewebfonts.com/icon -->
<!DOCTYPE svg PUBLIC "-//W3C//DTD SVG 1.1//EN" "http://www.w3.org/Graphics/SVG/1.1/DTD/svg11.dtd">
<svg version="1.1" xmlns="http://www.w3.org/2000/svg" xmlns:xlink="http://www.w3.org/1999/xlink" x="0px" y="0px" viewBox="0 0 1000 1000" enable-background="new 0 0 1000 1000" xml:space="preserve">
<metadata> Svg Vector Icons : http://www.onlinewebfonts.com/icon </metadata>
<g><g transform="translate(0.000000,511.000000) scale(0.100000,-0.100000)"><path d="M2741.5,4705.2l-72.2-63.4l-6.6-636.3l-6.6-636.3h-769.7c-448.3,0-811.2-10.9-868.1-24.1c-312.7-72.2-653.8-352.1-798.1-656c-41.5-89.7-85.3-214.3-98.4-279.9c-10.9-65.6-21.9-457-21.9-881.2c0-850.6,2.2-868.1,142.1-927.1c41.5-17.5,129-30.6,194.6-30.6H557l6.6-2081.7l6.6-2083.9l59-150.9c146.5-376.1,467.9-671.3,837.5-769.7c161.8-43.7,6901-43.7,7062.9,0c308.3,80.9,629.8,343.3,771.9,625.4C9437-3617.1,9437-3647.8,9437-1434.9V570.3h120.3c155.2,0,262.4,43.7,303.9,129c50.3,96.2,52.5,1570,2.2,1760.2c-109.3,415.5-487.6,793.8-885.6,885.6c-56.8,13.1-419.8,24.1-868.1,24.1h-771.9v590.4c0,634.1-8.8,701.9-111.5,774.1c-45.9,32.8-251.5,35-2232.6,35H2811.4L2741.5,4705.2z M6856.7,3839.3v-470.1H4998.1H3139.4v470.1v470.1h1858.6h1858.6V3839.3z M9043.4,2842.2c133.4-63.4,247.1-166.2,306.1-282.1c70-137.8,87.5-319.2,87.5-922.8v-586h-820h-820v251.5c0,439.5-13.1,448.3-699.7,448.3s-699.7-8.8-699.7-448.3v-251.5H4998.1H3598.6v251.5c0,439.5-13.1,448.3-699.7,448.3s-699.7-8.8-699.7-448.3v-251.5h-820h-820v601.3c0,596.9,15.3,763.1,80.9,896.5c43.7,87.5,177.1,225.2,258,268.9c174.9,91.8,61.2,89.7,4132.8,85.3l3892.2-4.4L9043.4,2842.2z M3137.2,810.8V351.6h-238.3h-238.3v459.2V1270h238.3h238.3V810.8z M7335.6,810.8V351.6h-238.3h-238.3v459.2V1270h238.3h238.3V810.8z M2199.2,318.8c0-439.5,13.1-448.3,699.7-448.3s699.7,8.8,699.7,448.3v251.5h1399.4h1399.5V318.8c0-439.5,13.1-448.3,699.7-448.3s699.7,8.8,699.7,448.3v251.5h579.5h579.5l-4.4-2092.6l-6.6-2094.8l-59-111.5c-72.1-137.8-199-253.7-336.7-306.1c-102.8-39.4-225.2-41.6-3551.1-41.6c-3325.9,0-3448.3,2.2-3551.1,41.6c-137.8,52.5-264.6,168.4-336.7,306.1l-59,111.5l-6.6,2094.8l-4.4,2092.6h579.5h579.5V318.8z"/></g></g>
</svg>