<?xml version="1.0" encoding="utf-8"?>
<!-- Svg Vector Icons : http://www.onlinewebfonts.com/icon -->
<!DOCTYPE svg PUBLIC "-//W3C//DTD SVG 1.1//EN" "http://www.w3.org/Graphics/SVG/1.1/DTD/svg11.dtd">
<svg version="1.1" xmlns="http://www.w3.org/2000/svg" xmlns:xlink="http://www.w3.org/1999/xlink" x="0px" y="0px" viewBox="0 0 1000 1000" enable-background="new 0 0 1000 1000" xml:space="preserve">
<metadata> Svg Vector Icons : http://www.onlinewebfonts.com/icon </metadata>
<g><path d="M286.3,809.9c0-14.2-9.2-26.4-27.5-36.7c-18.3-10.3-40-15.1-65.2-14.5c-25.2,0.6-46.9,5.5-65.2,14.5s-26.9,21.2-25.7,36.7c1.1,15.4,9.7,27.7,25.7,36.7s37.8,14.2,65.2,15.4s49.2-3.9,65.2-15.4S284,822.8,286.3,809.9z M286.3,190.1c0-14.8-9.2-27-27.5-36.7c-18.3-9.7-40-14.8-65.2-15.4c-25.2-0.6-46.9,4.5-65.2,15.4c-18.3,10.9-26.9,23.2-25.7,36.7c1.1,13.5,9.7,25.7,25.7,36.7s37.8,15.8,65.2,14.5c27.5-1.3,49.2-6.1,65.2-14.5S284,206.2,286.3,190.1z M899,258.6c0-14.2-9.2-26.4-27.5-36.7c-18.3-10.3-40-15.4-65.2-15.4s-46.9,5.1-65.2,15.4c-18.3,10.3-26.9,22.5-25.7,36.7s9.7,26.4,25.7,36.7c16,10.3,37.8,15.4,65.2,15.4s49.2-5.1,65.2-15.4C887.6,285,896.7,272.8,899,258.6z M990,258.6c0,18.7-8,36-24,52.1c-16,16.1-38.3,28.6-66.9,37.7c-1.1,103-73.2,177.3-216.3,223c-43.5,13.5-108.7,28-195.7,43.4c-81.2,14.2-135,26.7-161.3,37.7c-26.3,10.9-39.5,29-39.5,54.1v14.5c27.5,9,49.8,21.6,66.9,37.7s25.2,33.1,24,51.2c0,29-17.7,53.4-53.2,73.4c-35.5,20-78.9,30.2-130.4,30.9c-51.5,0.6-95-9.7-130.4-30.9C27.7,862,10,837.6,10,809.9c0-18.7,8.6-35.7,25.7-51.2s39.5-28,66.9-37.7V278.9c-28.6-9-50.9-21.6-66.9-37.7c-16-16.1-24.6-33.1-25.7-51.2c0-29,17.7-53.4,53.2-73.4c35.5-20,78.9-30.2,130.4-30.9c51.5-0.6,95,9.7,130.4,30.9c35.5,21.2,53.2,45.7,53.2,73.4c0,18.7-8,35.7-24,51.2c-16,15.4-38.3,28-66.9,37.7v268.4c34.3-9.7,83.5-20,147.6-30.9c34.3-6.4,62.4-11.9,84.1-16.4c21.7-4.5,44.1-10,66.9-16.4c22.9-6.4,41.8-13.5,56.6-21.2c14.9-7.7,27.5-17.1,37.8-28c10.3-10.9,19.5-23.2,27.5-36.7c8-13.5,10.9-29.9,8.6-49.2c-28.6-9-50.9-21.6-66.9-37.7c-16-16.1-24.6-33.5-25.7-52.1c0-29,17.7-53.4,53.2-73.4c35.5-20,78.9-29.9,130.4-29.9s95,10,130.4,29.9C972.3,205.2,990,229.7,990,258.6L990,258.6z"/></g>
</svg>