<?xml version="1.0" encoding="utf-8"?>
<!-- Svg Vector Icons : http://www.onlinewebfonts.com/icon -->
<!DOCTYPE svg PUBLIC "-//W3C//DTD SVG 1.1//EN" "http://www.w3.org/Graphics/SVG/1.1/DTD/svg11.dtd">
<svg version="1.1" xmlns="http://www.w3.org/2000/svg" xmlns:xlink="http://www.w3.org/1999/xlink" x="0px" y="0px" viewBox="0 0 1000 1000" enable-background="new 0 0 1000 1000" xml:space="preserve">
<metadata> Svg Vector Icons : http://www.onlinewebfonts.com/icon </metadata>
<g><path d="M527,286.8c-0.5-1.9-1.1-3.7-2-5.4l-0.1-0.3c-2.9-8-10-13.2-17.8-14.2c-2.1-0.5-4.3-0.8-6.5-0.8c-2.4,0-4.8,0.3-7,0.9c-8.1,0.8-15.5,6-18.4,14.2l-0.9,2.5c-0.3,0.7-0.5,1.4-0.8,2.1l-151,414.9c-4.1,11.3,1.7,23.8,13,27.9l10.2,3.7c11.3,4.1,23.8-1.7,27.9-13l59.8-164.4c1,0.1,1.9,0.2,2.9,0.2h126.3c1.4,0,2.7-0.1,4-0.4l59.8,164.3c4.1,11.3,16.6,17.1,27.9,13l10.2-3.7c11.3-4.1,17.1-16.6,13-27.9L527,286.8z M453.1,500.9L500,372L547,500.9H453.1z"/><path d="M500,10C229.4,10,10,229.4,10,500c0,270.6,219.4,490,490,490c270.6,0,490-219.4,490-490C990,229.4,770.6,10,500,10z M500,935.6c-240.6,0-435.6-195-435.6-435.6S259.4,64.4,500,64.4s435.6,195,435.6,435.6S740.6,935.6,500,935.6z"/></g>
</svg>