<?xml version="1.0" encoding="utf-8"?>
<!DOCTYPE svg PUBLIC "-//W3C//DTD SVG 1.1//EN" "http://www.w3.org/Graphics/SVG/1.1/DTD/svg11.dtd">
<svg version="1.1" xmlns="http://www.w3.org/2000/svg" xmlns:xlink="http://www.w3.org/1999/xlink" x="0px" y="0px" viewBox="0 0 1000 1000" enable-background="new 0 0 1000 1000" xml:space="preserve">
<metadata> Svg Vector Icons : http://www.onlinewebfonts.com/icon </metadata>
<g><g transform="translate(0.000000,512.000000) scale(0.100000,-0.100000)"><path d="M4759.8,4376.3l-228.7-643.7l-69.2-9.6c-174.9-26.9-526.5-117.2-686-174.9l-178.7-63.4l-520.7,442c-286.3,244-524.6,440-526.5,436.2c-3.8-3.8,48-307.5,115.3-676.4l121.1-670.6l-50-40.4c-171-132.6-440-403.5-580.3-582.2l-48-61.5l-672.5,123C1066.5,2522,761,2573.8,757.2,2570c-3.8-1.9,192.2-238.3,434.3-524.6l440-520.7l-82.6-246c-44.2-134.5-101.8-345.9-123-468.9l-42.3-221L741.8,358.3C388.2,233.4,100,125.8,100,120S390.2,6.6,743.7-118.3l643.7-230.6l9.6-67.3C1424-591,1512.4-944.6,1570-1106l63.4-176.8l-440-520.7c-244-286.3-440-524.6-436.2-526.5c3.8-3.8,307.5,48,676.4,115.3l668.7,123l51.9-61.5c159.5-194.1,411.2-443.9,572.6-570.7l61.5-48l-123-672.5c-67.3-368.9-119.1-674.5-115.3-678.3c1.9-1.9,238.3,192.2,524.6,434.3l518.8,440l246-80.7c136.4-46.1,347.8-101.8,470.8-124.9l222.9-44.2l228.7-639.9c124.9-353.6,232.5-641.8,238.3-641.8s113.4,290.1,238.3,643.7c126.8,353.6,230.6,643.7,230.6,643.7c1.9,0,74.9,13.5,163.3,28.8c196,34.6,472.7,109.5,641.8,172.9l126.8,46.1l522.6-442c286.3-242.1,524.6-438.1,526.5-436.2c3.8,3.8-48,307.5-115.3,676.4l-121.1,670.6l59.6,50c194.1,161.4,445.8,413.1,570.7,572.6l48,61.5l672.5-123c370.9-67.3,674.5-119.1,678.3-115.3c1.9,1.9-192.2,238.3-434.3,524.6l-440,520.8l82.6,246c71.1,217.1,111.5,382.4,149.9,622.6l11.5,67.3l643.7,230.6C9609.9,6.6,9900,114.2,9900,120s-290.1,113.4-643.7,238.3c-709.1,253.7-643.7,215.2-674.5,405.5c-23.1,144.1-103.8,449.6-161.4,603.4l-55.7,155.6l442,520.7c242.1,288.2,438.1,524.6,436.2,526.5c-3.8,3.8-307.5-48-676.4-115.3l-670.6-121.1l-50,59.6c-176.8,213.3-403.5,438.1-572.6,570.7l-61.5,48l123,672.5c67.3,370.9,119.1,674.5,115.3,678.3c-1.9,3.8-238.3-192.2-524.6-434.3l-520.8-440l-246,82.6c-134.5,44.2-345.9,101.8-468.9,124.9l-222.9,40.4l-228.7,641.8C5113.4,4731.8,5005.8,5020,5000,5020S4886.6,4729.8,4759.8,4376.3z"/></g></g>
</svg>